<svg width="54px" height="35px" viewBox="0 0 54 35" version="1.1" xmlns="http://www.w3.org/2000/svg"
     xmlns:xlink="http://www.w3.org/1999/xlink">
    <g id="Page-1" stroke="none" stroke-width="1" fill="none" fill-rule="evenodd">
        <g id="Transfer.-Start" transform="translate(-161.000000, -541.000000)" fill="#4E3822">
            <g id="Transfer">
                <g id="Wave"
                   transform="translate(188.000000, 558.500000) rotate(-90.000000) translate(-188.000000, -558.500000) translate(170.500000, 531.500000)">
                    <path class="wave-1" d="M2.2901365,15.3236078 C5.81949449,18.1628341 7.84259087,22.427723 7.84259087,27.0253338 C7.84259087,31.5846311 5.84563788,35.8273386 2.36655564,38.6685814 C2.10512172,38.8823299 1.78938998,38.9871877 1.4776803,38.9871877 C1.06743014,38.9871877 0.661202038,38.8077196 0.383679871,38.4628988 C-0.107011497,37.8559335 -0.0165151384,36.9646423 0.58679392,36.4726173 C3.40625826,34.1717954 5.02312653,30.7296368 5.02312653,27.0253338 C5.02312653,23.2927998 3.38413692,19.8304763 0.528474045,17.5296544 C-0.0788570744,17.0416624 -0.177397554,16.1523877 0.309271753,15.5413894 C0.795941061,14.9303911 1.68280538,14.8315828 2.2901365,15.3236078 Z"
                          id="Wave1"></path>
                    <path class="wave-2" d="M12.3392544,7.85450687 C18.1209662,12.5126125 21.437155,19.5078369 21.437155,27.0454987 C21.437155,34.5226657 18.1652089,41.4815932 12.4599162,46.1376823 C12.1984823,46.3494144 11.8847616,46.4542722 11.5710409,46.4542722 C11.1628017,46.4542722 10.7545626,46.274804 10.4770404,45.9299832 C9.98634906,45.3250345 10.0788564,44.4337433 10.6821655,43.9417182 C15.7258292,39.82605 18.6197017,33.6656549 18.6197017,27.0454987 C18.6197017,20.3688807 15.6876197,14.1802546 10.5755809,10.0645864 C9.96824978,9.5745779 9.8697093,8.68530319 10.3563786,8.07430492 C10.8430479,7.46532315 11.7299122,7.36651485 12.3392544,7.85450687 Z"
                          id="Wave2"></path>
                    <path class="wave-3" d="M34.3178034,27.0717132 C34.3178034,37.101764 30.4988571,46.5147671 23.566836,53.5785523 C23.2893138,53.8588453 22.9253173,54 22.5633319,54 C22.2053685,54 21.8474052,53.8648948 21.571894,53.5926678 C21.0188607,53.0441809 21.0128276,52.1468402 21.5598278,51.5923038 C27.9689811,45.06289 31.4983391,36.353644 31.4983391,27.0717132 C31.4983391,17.7131555 27.9207163,8.95551365 21.4230778,2.41198432 C20.8720555,1.85946443 20.8740665,0.962123737 21.4250888,0.411620345 C21.9761111,-0.138883048 22.8690085,-0.136866552 23.4180197,0.415653336 C30.4465703,7.49355409 34.3178034,16.958986 34.3178034,27.0717132 Z"
                          id="Wave3"></path>
                </g>
            </g>
        </g>
    </g>
</svg>